<?xml version="1.0" encoding="utf-8"?>
<svg width="24" height="24" viewBox="0 0 24 24" xmlns="http://www.w3.org/2000/svg">
  <ellipse style="stroke: rgb(0, 0, 0); fill: rgb(214, 149, 254);" transform="matrix(-0.707107, 0.707107, -0.707107, -0.707107, 19.387049, 13.844745)" cx="3.919" cy="6.641" rx="11.233" ry="11.021"/>
  <path d="M 11.235 15.918 L 8.802 15.918 L 8.802 14.702 L 11.235 14.702 L 11.235 15.918 Z M 13.027 13.462 L 14.917 15.352 L 12.416 15.918 L 13.027 13.462 Z M 20.36 9.911 L 15.555 14.775 L 13.607 12.828 L 18.412 7.964 L 20.36 9.911 Z M 16.71 15.338 L 16.71 17.743 L 6.977 17.743 L 6.977 6.793 L 9.41 6.793 L 10.688 8.01 L 13.06 8.01 L 14.277 6.793 L 16.71 6.793 L 16.71 7.956 L 17.927 6.724 L 17.927 5.577 L 16.102 5.577 C 15.354 5.577 14.776 4.917 14.277 4.36 L 9.41 4.36 C 8.911 4.917 8.332 5.577 7.585 5.577 L 5.76 5.577 L 5.76 18.96 L 17.927 18.96 L 17.927 14.106 L 16.71 15.338 Z M 11.843 5.577 C 12.179 5.577 12.452 5.849 12.452 6.185 C 12.452 6.521 12.179 6.793 11.843 6.793 C 11.507 6.793 11.235 6.521 11.235 6.185 C 11.235 5.849 11.507 5.577 11.843 5.577 Z"/>
</svg>