<?xml version="1.0" encoding="utf-8"?>
<svg viewBox="0 0 500 500" width="500" height="500" xmlns="http://www.w3.org/2000/svg">
  <ellipse transform="matrix(-0.5747690200805664, 0.8183160424232483, -0.8183160424232483, -0.5747690200805664, 721.6776123046875, 306.7192077636719)" cx="225.119" cy="417.559" rx="186.359" ry="186.359" style="fill: none; stroke: rgb(3, 3, 3); stroke-width: 50; stroke-dashoffset: -22;"/>
  <ellipse transform="matrix(-0.7071070075035095, 0.7071070075035095, -0.7071070075035095, -0.7071070075035095, 768.5509033203125, 247.18698120117188)" cx="368.653" cy="364.328" rx="48.853" ry="48.853"/>
  <rect x="223.333" width="53.437" height="142.5" transform="matrix(1, 0, 0, 1, 7.105427357601002e-15, 7.105427357601002e-15)"/>
  <rect x="218.646" width="60.937" height="162.501" y="337.5" transform="matrix(1, 0, 0, 1, 7.105427357601002e-15, 7.105427357601002e-15)"/>
  <rect x="620" width="58.125" height="155" y="309.999" transform="matrix(0, -1, 1, 0, 35.0009765625, 898.4161376953125)"/>
  <rect x="646.667" width="60.625" height="161.667" y="323.333" transform="matrix(0, -1, 1, 0, -323.3333740234375, 927.3751831054688)"/>
</svg>
