<?xml version="1.0" encoding="utf-8"?>
<svg width="24" height="24" viewBox="0 0 24 24" xmlns="http://www.w3.org/2000/svg">
  <ellipse style="stroke: rgb(0, 0, 0); fill: rgb(255, 226, 110);" transform="matrix(-0.707107, 0.707107, -0.707107, -0.707107, 19.50705, 13.884745)" cx="3.919" cy="6.641" rx="11.233" ry="11.021"/>
  <path d="M 12.033 4.74 C 9.393 4.74 7 6.881 7 9.523 C 7 12.164 9.183 15.318 12.033 19.84 C 14.884 15.318 17.067 12.164 17.067 9.523 C 17.067 6.881 14.675 4.74 12.033 4.74 Z M 12.033 11.66 C 10.991 11.66 10.146 10.815 10.146 9.773 C 10.146 8.731 10.991 7.885 12.033 7.885 C 13.075 7.885 13.921 8.731 13.921 9.773 C 13.921 10.815 13.075 11.66 12.033 11.66 Z"/>
</svg>