<?xml version="1.0" encoding="utf-8"?>
<svg viewBox="0 0 500 500" width="500" height="500" xmlns="http://www.w3.org/2000/svg">
  <g transform="matrix(5.444316864013672, 0, 0, 5.444316864013672, -19.15310668945312, -11.223992347717285)">
    <path fill-rule="evenodd" clip-rule="evenodd" d="M94.113,29.025c-0.42-0.538-0.943-0.998-1.328-1.56   c-0.233-0.343-0.292-0.811-0.424-1.225c-0.416-1.321-0.901-1.513-2.033-0.797c-0.209-0.11-0.418-0.222-0.849-0.451   c-0.215,1.223-0.535,2.298-0.564,3.383c-0.033,1.505-0.786,2.705-2.229,3.086c-1.033,0.273-2.057,0.617-3.109,0.771   c-0.958,0.138-1.485,0.725-1.957,1.431c-0.3,0.444-0.533,0.933-0.807,1.417c0.133,0.266,0.294,0.586,0.421,0.833   c-0.704,0.975-1.61,1.169-2.663,1.094c-0.379-0.028-0.807,0.12-1.152,0.302c-0.18,0.093-0.382,0.559-0.31,0.649   c0.566,0.728,0.043,1.14-0.425,1.504c-0.931,0.727-1.936,1.361-2.85,2.106c-1.169,0.955-1.792,1.041-3.163,0.171   c0.343-0.586,0.693-1.178,1.036-1.776c0.066-0.117,0.155-0.269,0.132-0.381c-0.167-0.783-0.297-1.585-0.568-2.335   c-0.207-0.566-0.644-0.613-1.054-0.105c-0.205,0.252-0.411,0.502-0.62,0.753c-0.095-0.056-0.19-0.112-0.289-0.168   c0.172-0.363,0.327-0.734,0.522-1.085c0.544-0.988,0.197-2.152-0.713-2.658C68.993,33.989,68.871,34,68.742,34   c-1.554,0-2.725-0.588-3.529-1.471c-0.733-0.112-1.457-0.273-2.148-0.532c-0.775-0.29-1.481-0.657-2.121-1.087   c-0.505,0.342-1.011,0.682-1.512,1.031c-0.775,0.54-1.052,0.479-1.521-0.348c-0.498,0.22-0.994,0.439-1.492,0.66   c-0.056-0.091-0.111-0.188-0.168-0.281c0.494-0.379,1-0.769,1.496-1.15c-1.425-0.085-2.83-0.774-3.821-2.297   c-0.062-0.096-0.133-0.183-0.199-0.274c-0.358,0.054-0.687-0.01-0.955-0.177c-0.455-0.001-0.912-0.077-1.357-0.251   c-0.406-0.159-0.816-0.313-1.229-0.461C37.115,27.284,24.296,25.506,11.665,22v2.658c-0.24-0.333-0.381-0.709-0.647-0.866   c-0.788-0.458-1.625-0.83-2.612-1.318c0.031,0.657,0.068,1.26,0.082,1.861c0.066,2.738-0.863,5.23-2.013,7.634   c-0.687,1.433-1.683,2.732-1.442,4.456c0.134,0.955-0.299,1.691-0.843,2.439c-0.234,0.32-0.19,0.884-0.176,1.335   c0.012,0.468,0.349,1.031,0.18,1.382c-0.676,1.41,0.699,2.438,0.568,3.717c0,0.002,0.075,0.002,0.077,0.014   c0.096,0.393,0.202,0.783,0.269,1.183c0.059,0.355-0.065,0.873,0.133,1.052c0.484,0.445,0.863,0.757,0.185,1.335   c-0.086,0.075-0.035,0.399,0.042,0.564c0.332,0.704,0.748,1.368,1.031,2.088c0.173,0.436,0.332,1.006,0.196,1.414   c-0.257,0.756,0.063,0.943,0.667,1.16c0.493,0.174,1.096,0.396,1.356,0.791c0.411,0.625,1.098,0.865,1.578,1.418   c0.638,0.734,1.313,1.318,1.288,2.365c-0.014,0.543,0.152,0.789,0.788,0.859c1.52,0.164,3.053,0.109,4.381,1.299   c1.099,0.986,2.619,1.484,3.854,2.342c2.132,1.477,4.62,1.219,6.97,1.732c0.091-0.408,0.156-0.703,0.224-1   c0.781,0.102,1.513,0.139,2.212,0.305c0.393,0.094,0.788,0.346,1.09,0.625c0.631,0.586,1.248,1.201,1.781,1.877   c0.369,0.467,0.583,1.059,0.869,1.592c0.248,0.463,0.405,1.021,0.765,1.357c0.565,0.527,1.269,0.904,2.003,1.4   c0.267-0.303,0.611-0.533,0.726-0.85c0.205-0.568,0.538-0.998,1.117-0.979c0.557,0.02,1.251,0.096,1.625,0.432   c0.612,0.547,1.031,1.316,1.5,2.01c0.556,0.824,1.09,1.666,1.62,2.506c0.104,0.16,0.2,0.342,0.232,0.523   c0.218,1.229,0.61,2.311,1.973,2.713c0.596,0.176,1.169,0.43,1.766,0.602c0.287,0.08,0.603,0.055,0.823,0.072   c-0.188-0.932-0.517-1.695-0.452-2.428c0.157-1.785,1.198-2.955,2.9-3.566c0.531-0.193,1.129-0.449,1.475-0.861   c0.459-0.551,0.809-1.012,1.611-1.184c1.112-0.238,2.155-0.547,3.306-0.158c0.366,0.123,0.854-0.113,1.287-0.188   c-0.001-0.094-0.005-0.186-0.006-0.281c1.04,0.601,1.936,1.59,3.41,1.191c0.392-0.824,1.004-1.536,1.837-2.01   c-0.016-0.146-0.104-0.308-0.311-0.5c0.861-0.197,1.876-0.766,2.379-0.469c0.875,0.52,1.426,0.006,2.066-0.148   c0.982-0.238,1.784,0.117,2.584,0.533c0.21,0.109,0.311,0.436,0.562,0.811c0.508-0.242,1.214-0.396,1.642-0.826   c0.788-0.793,1.256-0.207,1.789,0.223c0.376,0.307,0.654,0.848,1.068,0.969c0.827,0.24,0.953,0.906,0.767,1.406   c-0.382,1.023,0.203,1.701,0.636,2.41c0.405,0.66,0.993,1.199,1.482,1.807c0.275,0.344,0.449,0.939,0.778,1.035   c0.704,0.199,0.945,0.699,1.254,1.227c0.076,0.129,0.343,0.244,0.492,0.217c0.77-0.143,1.146-0.461,1.222-1.416   c0.098-1.246,0.201-2.361-0.589-3.441c-0.436-0.594-0.702-1.314-1.016-1.99c-0.154-0.332-0.143-0.801-0.379-1.027   c-0.825-0.783-1.193-1.814-1.732-2.768c-1.017-1.805,0.138-4.525,1.271-5.58c0.718-0.666,1.556-1.242,1.796-2.355   c0.089-0.404,0.748-0.68,1.134-1.027c0.26-0.234,0.5-0.488,0.744-0.738c0.519-0.535,1.023-1.086,1.556-1.609   c0.224-0.223,0.496-0.393,0.733-0.574c-0.256-0.338-0.415-0.551-0.6-0.793c0.766-0.256,1.326-0.596,1.177-1.428   c-0.075-0.057-0.146-0.12-0.216-0.182c-0.21-0.072-0.421-0.144-0.702-0.24c0.126-0.061,0.221-0.105,0.309-0.147   c-0.805-0.904-1.222-2.113-1.255-3.335c-0.069-0.429-0.144-0.891-0.229-1.422c0.115,0.101,0.218,0.189,0.311,0.271   c0.056-0.319,0.145-0.63,0.256-0.932c-0.001-0.025-0.008-0.048-0.008-0.072c0-1.779,0.978-3.353,2.408-4.24   c-0.026-0.084-0.043-0.168-0.081-0.254c0.951-0.676,1.785-1.268,2.625-1.864c-0.198-0.259-0.311-0.409-0.424-0.556   c0.08-0.07,0.117-0.11,0.161-0.143c0.548-0.396,1.079-0.818,1.646-1.181c1.234-0.785-0.128-1.129-0.269-1.679   c-0.035-0.14-0.133-0.269-0.143-0.409c-0.061-1.111-0.015-2.17,0.968-2.969c0.507-0.414,0.86-1.017,1.358-1.443   c0.677-0.575,1.428-1.063,2.249-1.664C94.529,29.729,94.363,29.343,94.113,29.025z"/>
  </g>
</svg>