<?xml version="1.0" encoding="utf-8"?>
<svg width="24" height="24" viewBox="0 0 24 24" xmlns="http://www.w3.org/2000/svg">
  <ellipse style="stroke: rgb(0, 0, 0); fill: rgb(207, 255, 110);" transform="matrix(-0.707107, 0.707107, -0.707107, -0.707107, 19.427048, 14.084745)" cx="3.919" cy="6.641" rx="11.233" ry="11.021"/>
  <path d="M 16.298 15.72 L 7.542 15.72 L 7.54 15.265 C 7.54 14.346 7.613 13.816 8.7 13.564 C 9.929 13.281 11.14 13.027 10.557 11.952 C 8.83 8.767 10.065 6.96 11.919 6.96 C 13.738 6.96 15.004 8.7 13.281 11.953 C 12.716 13.021 13.885 13.275 15.139 13.565 C 16.227 13.816 16.299 14.348 16.299 15.268 L 16.298 15.72 Z M 19.81 14.104 C 18.868 13.887 17.992 13.695 18.416 12.894 C 19.708 10.455 18.759 9.15 17.394 9.15 C 16.471 9.15 15.753 9.746 15.753 10.847 C 15.753 13.695 17.409 12.138 17.393 15.72 L 20.678 15.72 L 20.68 15.382 C 20.68 14.692 20.626 14.292 19.81 14.104 Z M 3.162 15.72 L 6.447 15.72 C 6.432 12.138 8.087 13.696 8.087 10.847 C 8.087 9.746 7.369 9.15 6.446 9.15 C 5.081 9.15 4.132 10.455 5.425 12.894 C 5.849 13.696 4.973 13.887 4.03 14.104 C 3.214 14.292 3.16 14.692 3.16 15.382 L 3.162 15.72 Z"/>
</svg>